<?xml version="1.0" encoding="UTF-8"?>
<svg id="Layer_1" xmlns="http://www.w3.org/2000/svg" version="1.1" viewBox="0 0 531.01 171">
  <!-- Generator: Adobe Illustrator 30.2.1, SVG Export Plug-In . SVG Version: 2.1.1 Build 1)  -->
  <defs>
    <style>
      .st0 {
        fill: #8a8578;
      }

      .st1 {
        fill: #c9a84c;
      }
    </style>
  </defs>
  <g>
    <path class="st0" d="M211.26,26.37h33.85v11.9h-1.45c-.9-2.33-1.91-4.23-3.03-5.7s-2.41-2.54-3.88-3.23c-1.47-.68-3.18-1.02-5.15-1.02h-6.85c-1.97,0-3.67.34-5.12,1.02s-2.72,1.76-3.82,3.23c-1.1,1.47-2.13,3.37-3.1,5.7h-1.45v-11.9h0ZM218.76,58.87h1.25c.5,0,.94-.09,1.33-.28.38-.18.76-.42,1.12-.72l.7-.8c.67-.67,1-1.48,1-2.45v-27h8.35v27c0,.97.33,1.78,1,2.45l.7.8c.37.3.75.54,1.15.72s.83.28,1.3.28h1v1.75h-18.9v-1.75Z"/>
    <path class="st0" d="M247.51,58.87h1.2c.5,0,.95-.09,1.35-.28.4-.18.77-.42,1.1-.72l.75-.8c.67-.67,1-1.48,1-2.45v-22.25c0-.97-.33-1.78-1-2.45l-.75-.8c-.33-.3-.7-.54-1.1-.72s-.85-.28-1.35-.28h-1.2v-1.75h18.85v1.75h-.95c-.5,0-.95.09-1.35.28s-.77.42-1.1.72l-.75.8c-.67.67-1,1.48-1,2.45v22.25c0,.97.33,1.78,1,2.45l.75.8c.33.3.7.54,1.1.72s.85.28,1.35.28h.95v1.75h-18.85v-1.75h0ZM260.43,48.69c.82-1.52,1.81-2.67,2.97-3.45s2.72-1.64,4.65-2.58c1.83-.83,3.28-1.6,4.35-2.3s1.96-1.7,2.68-3,1.07-2.97,1.07-5h2c0,2.43-.4,4.42-1.2,5.95-.8,1.53-1.78,2.69-2.93,3.47-1.15.78-2.71,1.64-4.67,2.58-1.83.83-3.29,1.6-4.38,2.3s-1.98,1.7-2.7,3-1.07,2.95-1.07,4.95h-2c0-2.43.41-4.41,1.22-5.92h.01ZM271.01,58.87h.95c.5,0,.95-.09,1.35-.28.4-.18.77-.42,1.1-.72l.75-.8c.67-.67,1-1.48,1-2.45v-22.25c0-.97-.33-1.78-1-2.45l-.75-.8c-.33-.3-.7-.54-1.1-.72s-.85-.28-1.35-.28h-.95v-1.75h18.85v1.75h-1.2c-.5,0-.95.09-1.35.28s-.77.42-1.1.72l-.75.8c-.67.67-1,1.48-1,2.45v22.25c0,.97.33,1.78,1,2.45l.75.8c.33.3.7.54,1.1.72s.85.28,1.35.28h1.2v1.75h-18.85v-1.75Z"/>
    <path class="st0" d="M292.36,58.87h1.2c.5,0,.95-.09,1.35-.28.4-.18.77-.42,1.1-.72l.75-.8c.67-.67,1-1.48,1-2.45v-22.25c0-.97-.33-1.78-1-2.45l-.75-.8c-.33-.3-.7-.54-1.1-.72s-.85-.28-1.35-.28h-1.2v-1.75h13.7v34.25h-13.7v-1.75ZM319.93,32.14c-1.28-1.28-2.85-2.24-4.7-2.88-1.85-.63-3.99-.95-6.42-.95h-3.3v-1.95h19.05v10.65h-1.45c-.83-1.97-1.89-3.59-3.17-4.88h0ZM305.51,58.67h6.1c2.13,0,4.08-.46,5.85-1.38,1.77-.92,3.23-2.12,4.4-3.62,1.17-1.5,2-3.15,2.5-4.95h1.45v11.9h-20.3v-1.95h0ZM305.86,45.72h.7c.8-1.63,2.06-3.02,3.77-4.15,1.72-1.13,3.38-1.7,4.98-1.7,1.2,0,2.13.08,2.8.25v9.25h-1.45c-.17-1.37-.67-2.46-1.53-3.28-.85-.82-1.76-1.22-2.72-1.22-.8,0-1.65.17-2.55.5s-1.73.82-2.48,1.45-1.26,1.43-1.52,2.4v-3.5Z"/>
  </g>
  <g>
    <path class="st1" d="M85.19,104.96c3.17,1.16,5.64,2.86,7.39,5.12s2.63,5.04,2.63,8.37c0,4.45-1.31,7.94-3.92,10.46-2.61,2.52-6.04,4.27-10.28,5.25s-9.15,1.47-14.73,1.47H30.5v-3.12h2.14c.89,0,1.69-.16,2.4-.49.71-.33,1.36-.76,1.96-1.29l1.33-1.42c1.19-1.19,1.78-2.64,1.78-4.36v-39.61c0-1.72-.59-3.17-1.78-4.36l-1.33-1.42c-.59-.53-1.25-.96-1.96-1.29s-1.51-.49-2.4-.49h-2.14v-3.12h33.73c8.84,0,15.77.91,20.78,2.71,5.01,1.81,7.52,5.36,7.52,10.64,0,2.2-.7,4.14-2.09,5.83-1.4,1.69-3.43,3.25-6.1,4.67s-6.2,2.97-10.59,4.63v.27c4.45-.12,8.26.4,11.44,1.56h0ZM57.82,108.43c1.25-1.45,2.57-2.59,3.96-3.43,1.39-.83,3.16-1.75,5.3-2.76,2.19-1.19,3.94-2.24,5.25-3.16,1.3-.92,2.39-2.12,3.25-3.6.86-1.48,1.29-3.38,1.29-5.7,0-3.38-.61-5.89-1.83-7.52s-2.8-2.68-4.76-3.16c-1.96-.47-4.54-.71-7.74-.71h-7.65v35.42c.71-2.14,1.69-3.93,2.94-5.38h0ZM72.2,130.86c2.05-.68,3.68-2,4.89-3.96,1.22-1.96,1.83-4.78,1.83-8.46,0-1.96-.53-3.78-1.6-5.47s-2.46-3.04-4.18-4.05-3.53-1.51-5.43-1.51-3.8.5-5.52,1.51-3.25,2.64-4.58,4.9-2.24,5.1-2.71,8.54v9.52h9.79c2.97,0,5.47-.34,7.52-1.02h-.01Z"/>
    <path class="st1" d="M119.19,132.95c-5.01-2.37-8.96-5.92-11.84-10.64s-4.32-10.46-4.32-17.22,1.44-12.42,4.32-17.13c2.88-4.72,6.82-8.26,11.84-10.64,5.01-2.37,10.6-3.56,16.78-3.56s11.75,1.19,16.73,3.56c4.98,2.37,8.91,5.92,11.79,10.64,2.88,4.72,4.32,10.43,4.32,17.13s-1.44,12.5-4.32,17.22-6.81,8.26-11.79,10.64c-4.98,2.37-10.56,3.56-16.73,3.56s-11.76-1.19-16.78-3.56ZM145.31,129.7c2.31-1.99,4.02-4.98,5.12-8.99,1.1-4,1.65-9.24,1.65-15.71s-.55-11.61-1.65-15.62c-1.1-4-2.83-6.96-5.21-8.86-2.37-1.9-5.49-2.85-9.34-2.85s-7.05.95-9.39,2.85-4.05,4.85-5.12,8.86c-1.07,4-1.6,9.21-1.6,15.62s.55,11.7,1.65,15.71c1.1,4,2.83,7,5.21,8.99,2.37,1.99,5.49,2.98,9.35,2.98s7.03-.99,9.34-2.98h0Z"/>
    <path class="st1" d="M172.99,132.5h2.14c.89,0,1.69-.16,2.4-.49.71-.33,1.36-.76,1.96-1.29l1.33-1.42c1.19-1.19,1.78-2.64,1.78-4.36v-39.61c0-1.72-.59-3.17-1.78-4.36l-1.33-1.42c-.59-.53-1.25-.96-1.96-1.29s-1.51-.49-2.4-.49h-2.14v-3.12h24.39v50.29c0,1.72.59,3.17,1.78,4.36l1.33,1.42c.65.65,1.38,1.11,2.18,1.38.8.27,1.97.4,3.51.4h2.58v3.12h-35.78v-3.12h.01ZM195.42,124.58v-3.83c0-1.66.43-3.1,1.29-4.32.86-1.21,1.91-2.24,3.16-3.07s2.94-1.84,5.07-3.03c2.97-1.54,5.37-2.98,7.21-4.32s3.41-3.16,4.72-5.47c1.3-2.31,1.96-5.19,1.96-8.63,0-3.74-.56-6.59-1.69-8.54-1.13-1.96-2.69-3.28-4.67-3.96-1.99-.68-4.49-1.02-7.52-1.02h-12.01v-3.74h15.04c5.52,0,10.25.48,14.2,1.42,3.95.95,7.09,2.69,9.43,5.21,2.34,2.52,3.52,6.1,3.52,10.72,0,4.09-1.1,7.42-3.29,9.97-2.2,2.55-4.84,4.51-7.92,5.87-3.08,1.37-7.06,2.76-11.93,4.18-3.32,1.01-5.96,1.9-7.92,2.67-1.96.77-3.56,1.71-4.81,2.8-1.25,1.1-1.87,2.45-1.87,4.05v3.03h-1.97ZM212.42,110.43v1.07c1.96.95,4.14,1.69,6.54,2.23,2.4.53,4.67.89,6.81,1.07l6.41,9.7c1.78,2.79,3.53,4.82,5.25,6.1s3.32,1.91,4.81,1.91h1.33v3.12h-21l-16.29-24.21,6.14-.98h0Z"/>
    <path class="st1" d="M241.34,132.5h1.07c2.08,0,4.12-1.08,6.14-3.25s4-5.38,5.96-9.66l18.51-41.74.89,6.5-12.73,29.19c-1.31,3.09-1.9,6.08-1.78,8.99.12,2.91.88,5.3,2.27,7.16,1.39,1.87,3.16,2.8,5.3,2.8h1.78v3.12h-27.41v-3.12h0ZM262.43,132.24c-1.25-.71-2.18-1.54-2.8-2.49-.62-.95-.93-1.72-.93-2.31,0-1.13.49-2.15,1.47-3.07s2.51-2.06,4.58-3.43c2.43-1.6,4.41-3.07,5.92-4.41,1.51-1.33,2.85-3.1,4-5.29,1.16-2.19,1.74-4.75,1.74-7.65,0-4.57-1.39-9.94-4.18-16.11l2.94-.89c1.78,3.92,3.08,7.24,3.92,9.97.83,2.73,1.25,5.19,1.25,7.39,0,3.32-.67,6.14-2,8.46-1.33,2.31-2.89,4.14-4.67,5.47s-4.04,2.77-6.76,4.32c-2.14,1.19-3.66,2.14-4.58,2.85-.92.71-1.38,1.54-1.38,2.49,0,.53.28,1.2.85,2,.56.8,1.3,1.5,2.22,2.09s1.91.89,2.98.89v.8c-1.78,0-3.29-.36-4.54-1.07h-.03ZM260.92,74.65h21.63l22.78,49.66c1.25,2.61,2.63,4.63,4.14,6.05s3.34,2.14,5.47,2.14h1.07v3.12h-33.91v-3.12h1.69c1.01,0,2.03-.43,3.07-1.29s1.72-2.02,2.05-3.47.07-3.07-.76-4.85l-19.13-41.92-1.25-1.42c-.65-.53-1.32-.96-2-1.29s-1.47-.49-2.36-.49h-2.49v-3.12h0Z"/>
    <path class="st1" d="M332.48,132.95c-5.22-2.37-9.3-5.92-12.24-10.64s-4.41-10.46-4.41-17.22,1.42-12.49,4.27-17.18c2.85-4.69,6.81-8.22,11.88-10.59s10.93-3.56,17.58-3.56c3.56,0,6.76.57,9.61,1.69,2.85,1.13,4.98,2.37,6.41,3.74l-4.18-1.33c3.26-1.07,6.41-2.43,9.43-4.09h2.67v22.87h-2.67c-2.85-6.11-5.92-10.8-9.21-14.06-3.29-3.26-7.25-4.9-11.88-4.9-3.86,0-7.02.97-9.48,2.89-2.46,1.93-4.29,4.91-5.47,8.95-1.19,4.04-1.78,9.2-1.78,15.49s.61,11.7,1.82,15.71c1.21,4,3.22,7.02,6.01,9.03,2.79,2.02,6.47,3.03,11.04,3.03,3.92,0,7.39-.9,10.41-2.71,3.03-1.81,5.28-4.43,6.76-7.88,1.48-3.44,1.93-7.48,1.33-12.1h3.38c1.54,4.63,1.53,8.97-.04,13.04s-4.41,7.31-8.5,9.75c-4.09,2.43-9.05,3.65-14.86,3.65-6.71,0-12.67-1.19-17.89-3.56v-.02Z"/>
    <path class="st1" d="M382.85,132.5h2.14c.89,0,1.69-.16,2.4-.49s1.36-.76,1.96-1.29l1.33-1.42c1.19-1.19,1.78-2.64,1.78-4.36v-39.61c0-1.72-.59-3.17-1.78-4.36l-1.33-1.42c-.59-.53-1.25-.96-1.96-1.29s-1.51-.49-2.4-.49h-2.14v-3.12h33.55v3.12h-1.69c-.89,0-1.69.16-2.4.49-.71.33-1.37.76-1.96,1.29l-1.33,1.42c-1.19,1.19-1.78,2.64-1.78,4.36v50.29h-24.39v-3.12h0ZM406.26,132.15h9.97c3.97,0,7.52-.77,10.64-2.31,3.12-1.54,5.7-3.77,7.74-6.67,2.05-2.91,3.48-6.41,4.32-10.5h2.58v22.96h-35.24v-3.47h-.01Z"/>
    <path class="st1" d="M445.95,132.5h2.14c.89,0,1.69-.16,2.4-.49s1.36-.76,1.96-1.29l1.33-1.42c1.19-1.19,1.78-2.64,1.78-4.36v-39.61c0-1.72-.59-3.17-1.78-4.36l-1.33-1.42c-.59-.53-1.25-.96-1.96-1.29s-1.51-.49-2.4-.49h-2.14v-3.12h24.39v60.96h-24.39v-3.12h0ZM495.03,84.93c-2.28-2.28-5.07-3.99-8.37-5.12-3.29-1.13-7.11-1.69-11.44-1.69h-5.87v-3.47h33.91v18.96h-2.58c-1.48-3.5-3.37-6.39-5.65-8.68h0ZM469.36,132.15h10.86c3.8,0,7.27-.82,10.41-2.45,3.14-1.63,5.75-3.78,7.83-6.45s3.56-5.61,4.45-8.81h2.58v21.18h-36.13v-3.47h0ZM469.98,109.1h1.25c1.42-2.91,3.66-5.37,6.72-7.39s6.01-3.03,8.86-3.03c2.14,0,3.8.15,4.98.44v16.46h-2.58c-.3-2.43-1.2-4.38-2.71-5.83-1.51-1.45-3.13-2.18-4.85-2.18-1.42,0-2.94.3-4.54.89s-3.07,1.45-4.41,2.58c-1.33,1.13-2.24,2.55-2.71,4.27v-6.23.02Z"/>
  </g>
</svg>